<?xml version="1.0" encoding="UTF-8"?>
<svg id="a" data-name="icon" xmlns="http://www.w3.org/2000/svg" viewBox="0 0 256 256">
  <defs>
    <style>
      .b {
        fill: #323330;
      }

      .b, .c {
        stroke-width: 0px;
      }

      .c {
        fill: #f0db4f;
      }
    </style>
  </defs>
  <rect class="c" width="256" height="256" rx="60" ry="60"/>
  <path class="b" d="M30,204.91l23.22-14.05c4.48,7.94,8.55,14.66,18.33,14.66s15.28-3.66,15.28-17.92v-96.94h28.51v97.35c0,29.53-17.31,42.97-42.57,42.97-22.81,0-36.05-11.81-42.77-26.07"/>
  <path class="b" d="M130.82,201.85l23.21-13.44c6.11,9.98,14.05,17.31,28.11,17.31,11.81,0,19.35-5.91,19.35-14.05,0-9.78-7.74-13.24-20.77-18.94l-7.13-3.06c-20.57-8.76-34.22-19.75-34.22-42.97,0-21.38,16.29-37.68,41.75-37.68,18.13,0,31.16,6.31,40.53,22.81l-22.2,14.26c-4.89-8.76-10.18-12.22-18.33-12.22s-13.65,5.3-13.65,12.22c0,8.55,5.3,12.02,17.51,17.31l7.13,3.05c24.24,10.39,37.88,20.98,37.88,44.8,0,25.66-20.16,39.71-47.25,39.71s-43.58-12.63-51.93-29.12"/>
</svg>