<?xml version="1.0" encoding="UTF-8"?>
<svg id="a" data-name="icon" xmlns="http://www.w3.org/2000/svg" xmlns:xlink="http://www.w3.org/1999/xlink" viewBox="0 0 256 256">
  <defs>
    <style>
      .bq {
        fill: url(#v);
      }

      .bq, .br, .bs, .bt, .bu, .bv, .bw, .bx, .by, .bz, .ca, .cb, .cc, .cd, .ce, .cf, .cg, .ch, .ci, .cj, .ck, .cl, .cm {
        stroke-width: 0px;
      }

      .br {
        fill: url(#c);
      }

      .bs {
        fill: url(#bo);
      }

      .bt {
        fill: url(#bk);
      }

      .bu {
        fill: url(#ad);
      }

      .bv, .bx {
        fill: #be202e;
      }

      .bw {
        fill: url(#an);
      }

      .bx {
        isolation: isolate;
        opacity: .35;
      }

      .by {
        fill: url(#l);
      }

      .bz {
        fill: url(#t);
      }

      .ca {
        fill: url(#ay);
      }

      .cb {
        fill: none;
      }

      .cc {
        fill: url(#n);
      }

      .cd {
        fill: url(#z);
      }

      .ce {
        fill: #fff;
      }

      .cf {
        fill: url(#bc);
      }

      .cg {
        fill: url(#aw);
      }

      .ch {
        fill: #282661;
      }

      .ci {
        fill: url(#ba);
      }

      .cj {
        fill: url(#r);
      }

      .ck {
        fill: url(#bg);
      }

      .cl {
        fill: url(#be);
      }

      .cm {
        fill: url(#p);
      }
    </style>
    <linearGradient id="c" data-name="Unbenannter Verlauf 11" x1="-8384.62" y1="1543.44" x2="-8338.87" y2="1489.94" gradientTransform="translate(105.73 -894.68) rotate(-101.28) scale(.12 -.12)" gradientUnits="userSpaceOnUse">
      <stop offset="0" stop-color="#f69923"/>
      <stop offset=".31" stop-color="#f79a23"/>
      <stop offset=".84" stop-color="#e97826"/>
    </linearGradient>
    <linearGradient id="l" data-name="Unbenannter Verlauf 20" x1="-8723.2" y1="1549.48" x2="-8396.81" y2="1549.48" gradientTransform="translate(105.73 -894.68) rotate(-101.28) scale(.12 -.12)" gradientUnits="userSpaceOnUse">
      <stop offset=".32" stop-color="#9e2064"/>
      <stop offset=".63" stop-color="#c92037"/>
      <stop offset=".75" stop-color="#cd2335"/>
      <stop offset="1" stop-color="#e97826"/>
    </linearGradient>
    <linearGradient id="n" data-name="Unbenannter Verlauf 15" x1="-8683.8" y1="1516.68" x2="-8489.3" y2="1516.68" gradientTransform="translate(105.73 -894.68) rotate(-101.28) scale(.12 -.12)" gradientUnits="userSpaceOnUse">
      <stop offset="0" stop-color="#282662"/>
      <stop offset=".1" stop-color="#662e8d"/>
      <stop offset=".79" stop-color="#9f2064"/>
      <stop offset=".95" stop-color="#cd2032"/>
    </linearGradient>
    <linearGradient id="p" data-name="Unbenannter Verlauf 20" x1="-8704.87" y1="1552.5" x2="-8378.47" y2="1552.5" xlink:href="#l"/>
    <linearGradient id="r" data-name="Unbenannter Verlauf 15" x1="-8681.06" y1="1548.03" x2="-8509.53" y2="1548.03" xlink:href="#n"/>
    <linearGradient id="t" data-name="Unbenannter Verlauf 20" x1="-8704.87" y1="1518.72" x2="-8378.47" y2="1518.72" xlink:href="#l"/>
    <linearGradient id="v" data-name="Unbenannter Verlauf 20" x1="-8725.11" y1="1520.36" x2="-8398.72" y2="1520.36" xlink:href="#l"/>
    <linearGradient id="z" data-name="Unbenannter Verlauf 20" x1="-8704.87" y1="1508.6" x2="-8378.47" y2="1508.6" xlink:href="#l"/>
    <linearGradient id="ad" data-name="Unbenannter Verlauf 20" x1="-8704.87" y1="1509.79" x2="-8378.47" y2="1509.79" xlink:href="#l"/>
    <linearGradient id="an" data-name="Unbenannter Verlauf 11" x1="-8499.49" y1="1044.67" x2="-8453.74" y2="991.18" gradientTransform="translate(889.18 -758.99) rotate(-56.65) scale(.13 -.13)" xlink:href="#c"/>
    <linearGradient id="aw" data-name="Unbenannter Verlauf 20" x1="-8838.06" y1="1050.72" x2="-8511.67" y2="1050.72" gradientTransform="translate(889.18 -758.99) rotate(-56.65) scale(.13 -.13)" xlink:href="#l"/>
    <linearGradient id="ay" data-name="Unbenannter Verlauf 15" x1="-8798.66" y1="1017.92" x2="-8604.16" y2="1017.92" gradientTransform="translate(889.18 -758.99) rotate(-56.65) scale(.13 -.13)" xlink:href="#n"/>
    <linearGradient id="ba" data-name="Unbenannter Verlauf 20" x1="-8819.73" y1="1053.73" x2="-8493.34" y2="1053.73" gradientTransform="translate(889.18 -758.99) rotate(-56.65) scale(.13 -.13)" xlink:href="#l"/>
    <linearGradient id="bc" data-name="Unbenannter Verlauf 15" x1="-8795.93" y1="1049.26" x2="-8624.4" y2="1049.26" gradientTransform="translate(889.18 -758.99) rotate(-56.65) scale(.13 -.13)" xlink:href="#n"/>
    <linearGradient id="be" data-name="Unbenannter Verlauf 20" x1="-8819.73" y1="1019.96" x2="-8493.34" y2="1019.96" gradientTransform="translate(889.18 -758.99) rotate(-56.65) scale(.13 -.13)" xlink:href="#l"/>
    <linearGradient id="bg" data-name="Unbenannter Verlauf 20" x1="-8839.98" y1="1021.59" x2="-8513.58" y2="1021.59" gradientTransform="translate(889.18 -758.99) rotate(-56.65) scale(.13 -.13)" xlink:href="#l"/>
    <linearGradient id="bk" data-name="Unbenannter Verlauf 20" x1="-8819.73" y1="1009.84" x2="-8493.34" y2="1009.84" gradientTransform="translate(889.18 -758.99) rotate(-56.65) scale(.13 -.13)" xlink:href="#l"/>
    <linearGradient id="bo" data-name="Unbenannter Verlauf 20" x1="-8819.73" y1="1011.03" x2="-8493.34" y2="1011.03" gradientTransform="translate(889.18 -758.99) rotate(-56.65) scale(.13 -.13)" xlink:href="#l"/>
  </defs>
  <rect class="ch" width="256" height="256" rx="60" ry="60"/>
  <g id="b" data-name="g7248">
    <path id="d" data-name="path7258" class="br" d="M120.37,112.76c-.27.65-.49,2.05-.59,3.93l2.11,1.02c-.03-1.34.02-2.61.15-3.76,0-.09.02-.14.02-.14,0,.05-.01.09-.02.14-.04.38-.13,1.57,0,3.71.87-.71,2.13-1.92,3.13-2.95-1.05-2.15-2.36-2.52-2.36-2.52,0,0-1.87-.75-2.43.58Z"/>
    <path id="e" data-name="path7260" class="cb" d="M125.86,123.39s.01,0,.01-.02l-.12.1s-.01.02-.01.03c.04-.04.08-.08.12-.11Z"/>
    <path id="f" data-name="path7262" class="cb" d="M127.15,127.05c-.06.07-.12.14-.19.2.07-.07.13-.13.19-.2Z"/>
    <path id="g" data-name="path7264" class="cb" d="M125.94,138.27s-.02-.06-.03-.1c-.18-.66-.36-1.3-.53-1.93-.18-.7-.36-1.39-.53-2.06-.17-.7-.34-1.39-.5-2.05-.16-.7-.32-1.37-.46-2.02-.11-.53-.22-1.05-.33-1.55-.04-.17-.07-.33-.1-.5-.06-.33-.13-.65-.19-.96-.05-.29-.11-.57-.16-.85-.02-.09-.03-.19-.05-.27,0-.02,0-.03,0-.05l-.1.09-.21-.1s0,.05.02.07c.07.42.14.85.22,1.28.04.24.09.49.14.74.13.69.27,1.37.42,2.06.14.69.3,1.39.46,2.08.15.68.32,1.35.48,2.02.16.67.33,1.33.5,1.99.18.69.35,1.37.54,2.03.04.15.08.3.13.45.15.54.29,1.07.44,1.59l.34.17.11-.1s0-.03-.01-.04c-.22-.68-.41-1.35-.6-2Z"/>
    <path id="h" data-name="path7268" class="bv" d="M127.69,128.97c-.1.11-.2.21-.3.31h0c.05-.05.11-.11.16-.16.05-.05.1-.1.15-.15Z"/>
    <path id="i" data-name="path7270" class="bx" d="M127.69,128.97c-.1.11-.2.21-.3.31h0c.05-.05.11-.11.16-.16.05-.05.1-.1.15-.15Z"/>
    <path id="j" data-name="path7272" class="bv" d="M126.91,127.29h0s0,0,0,0c.02-.01.03-.03.05-.04.07-.07.13-.13.19-.2-.07.08-.16.16-.24.25h0Z"/>
    <path id="k" data-name="path7274" class="bx" d="M126.91,127.29h0s0,0,0,0c.02-.01.03-.03.05-.04.07-.07.13-.13.19-.2-.07.08-.16.16-.24.25h0Z"/>
    <path id="m" data-name="path7286" class="by" d="M122.44,123.94c-.1-.7-.19-1.39-.27-2.07-.08-.71-.14-1.4-.19-2.08,0-.04,0-.08,0-.12-.05-.67-.08-1.32-.09-1.96l-2.11-1.02c0,.13-.01.26-.02.4-.02.5-.04,1.04-.04,1.6,0,.64,0,1.3.01,1.99.01.64.04,1.3.08,1.98.03.58.07,1.17.12,1.76,0,.03,0,.04,0,.07l2.82,1.43c-.1-.67-.2-1.33-.3-1.99Z"/>
    <path id="o" data-name="path7298" class="cc" d="M126.61,140.61c.16.53.31,1.07.49,1.62,0,0,0,.02,0,.02.02.08.04.16.07.23.11.37.22.7.45,1.46.46-.09,1.02.11,1.62.39-.38-.46-.91-.77-1.54-.84,1.73-1.15,2.86-2.63,2.7-4.4-.02-.16-.04-.32-.07-.48-.03.68-.31,1.17-1.13,1.7h0s0,0,0,0c.78-1.37,1-2.31.9-3.51-.02-.29-.06-.59-.11-.92-.25,1.79-1.21,2.95-2.62,3.64l-.85.79c.03.1.06.2.09.3Z"/>
    <path id="q" data-name="path7310" class="cm" d="M125.51,138.21c-.18-.67-.36-1.35-.54-2.03-.17-.66-.34-1.32-.5-1.99s-.32-1.35-.48-2.02c-.16-.69-.31-1.38-.46-2.08-.15-.68-.28-1.38-.42-2.06-.05-.25-.09-.49-.14-.74-.08-.42-.15-.85-.22-1.28,0-.02,0-.05-.02-.07l-2.8-1.43s.01.09.01.13c.06.63.11,1.28.19,1.93.07.66.16,1.32.25,1.98.08.56.17,1.12.27,1.68.02.11.04.23.06.34.13.7.27,1.37.42,2,.17.71.35,1.38.53,2.01.12.41.24.8.36,1.17.11.31.22.63.33.94.27.73.56,1.44.88,2.13l2.83,1.44c-.15-.52-.29-1.05-.44-1.59-.04-.15-.08-.3-.12-.45Z"/>
    <path id="s" data-name="path7322" class="cj" d="M123.28,138.91c.39.83.82,1.64,1.3,2.41.02.02.03.06.05.08-.78-.32-2.17-.17-2.16-.17,1.43.5,2.69,1.11,3.48,2.03-.31.35-.9.61-1.65.83,1.02.11,1.6-.07,1.81-.16-.54.45-.84,1.26-1.1,2.14.6-.99,1.2-1.64,1.78-1.89.85,2.82,1.87,5.88,3.01,9.08.19-.25.21-.52.13-.8-.21-.58-1.56-4.39-3.1-9.57-.04-.15-.08-.29-.13-.45-.01-.04-.02-.08-.04-.12-.16-.54-.32-1.1-.48-1.67-.04-.13-.07-.26-.11-.39h0s-2.83-1.44-2.83-1.44c0,.04.02.06.04.1Z"/>
    <path id="u" data-name="path7334" class="bz" d="M123.07,125.99c.02.09.03.18.05.27.05.28.1.56.16.85.06.31.12.63.19.96.03.16.06.33.1.5.1.5.21,1.02.33,1.55.14.65.29,1.32.46,2.02.16.66.32,1.35.5,2.05.17.67.34,1.35.53,2.06.17.63.34,1.27.53,1.93,0,.03.02.06.03.1.18.65.37,1.32.57,2,0,.02,0,.03.01.04l.85-.79s-.04.02-.07.03c1.01-.96,1.88-2.88,2.08-4.61.09-.8.08-1.64-.03-2.57-.08-.69-.22-1.41-.41-2.2-.17-.68-.38-1.4-.63-2.15-.16.32-.38.63-.65.94-.05.05-.1.11-.15.16s-.1.1-.16.16h0c.75-1.16.84-2.41.62-3.71-.14.38-.4.95-.85,1.47-.06.07-.12.14-.19.2-.02.01-.03.03-.05.05h0c.25-.41.43-.81.55-1.2.03-.08.05-.17.06-.25.03-.13.05-.26.07-.39,0-.09.02-.17.03-.25.01-.2.02-.4,0-.61,0-.07,0-.13-.02-.19-.02-.09-.03-.18-.05-.27-.07-.4-.14-.74-.22-1.04-.04-.15-.07-.28-.11-.41-.02-.05-.03-.1-.04-.15-.05-.14-.08-.26-.12-.36-.06-.15-.11-.27-.16-.36h0c-.01.05-.03.11-.06.17-.18.41-.59.98-.96,1.38l.79-.72-.79.72s-.01,0-.01.02c-.04.04-.08.08-.12.12,0-.01.01-.02.01-.03l-2.69,2.47s.03.03.02.04Z"/>
    <path id="w" data-name="path7346" class="bq" d="M122.03,117.66c.03.59.08,1.25.15,1.99,0,.04,0,.08.01.11.06.64.14,1.33.24,2.08.09.65.18,1.34.3,2.08.1.64.21,1.31.34,2.02l2.69-2.47c.56-1.02.68-1.65.68-2.44,0-.21-.02-.43-.03-.66-.04-.69-.13-1.42-.24-2.13-.11-.68-.25-1.34-.4-1.9-.1-.36-.2-.69-.31-.97-.1-.24-.2-.46-.3-.67-.99,1.02-2.25,2.23-3.13,2.94Z"/>
    <path id="x" data-name="path7348" class="bv" d="M127.54,129.13c-.05.05-.1.1-.16.16h0c.05-.05.1-.11.16-.16Z"/>
    <path id="y" data-name="path7350" class="bx" d="M127.54,129.13c-.05.05-.1.1-.16.16h0c.05-.05.1-.11.16-.16Z"/>
    <path id="aa" data-name="path7362" class="cd" d="M127.54,129.13c-.05.05-.1.1-.16.16h0c.05-.05.1-.11.16-.16Z"/>
    <path id="ab" data-name="path7364" class="bv" d="M126.91,127.3s.03-.03.05-.05c-.02.01-.03.03-.05.05h0Z"/>
    <path id="ac" data-name="path7366" class="bx" d="M126.91,127.3s.03-.03.05-.05c-.02.01-.03.03-.05.05h0Z"/>
    <path id="ae" data-name="path7378" class="bu" d="M126.91,127.3s.03-.03.05-.05c-.02.01-.03.03-.05.05h0Z"/>
  </g>
  <path id="af" data-name="path4317" class="ce" d="M38.05,102.61h9.86c.69,0,1.17.14,1.45.42.24.2.38.5.42.91.04.36.1.73.18,1.09.08.65.16,1.31.24,2,.12.65.22,1.31.3,2,.44,2.54.81,5.12,1.09,7.74.32,2.62.71,5.22,1.15,7.8.16.81.28,1.63.36,2.48s.2,1.67.36,2.48c.04.2.08.4.12.6s.14.36.3.48c.08.04.14.08.18.12.08.04.18.02.3-.06.32-.08.58-.32.79-.73.2-.4.4-.77.6-1.09.48-.93.95-1.83,1.39-2.72.44-.93.93-1.85,1.45-2.78,1.29-2.46,2.58-4.92,3.87-7.38,1.33-2.5,2.64-5,3.93-7.5.32-.65.65-1.27.97-1.87.36-.65.71-1.29,1.03-1.94.16-.32.34-.65.54-.97.2-.32.48-.58.85-.79.28-.2.6-.3.97-.3h10.4c.4,0,.69.08.85.24.4.24.52.71.36,1.39-.12.65-.24,1.31-.36,2l-1.81,9.07-4.54,22.5-1.03,5.26c-.08.44-.18.89-.3,1.33-.12.4-.32.71-.6.91-.28.2-.6.32-.97.36h-5.75c-.28-.08-.54-.14-.79-.18-.2-.04-.36-.18-.48-.42-.12-.2-.16-.46-.12-.79.08-.32.16-.67.24-1.03l.6-3.08,3.14-15.54c.08-.56.16-1.09.24-1.57.12-.52.22-1.05.3-1.57.08-.32.16-.65.24-.97.08-.36.12-.71.12-1.03-.04-.28-.04-.58,0-.91.08-.32.02-.52-.18-.6-.12-.04-.22-.02-.3.06-.08.08-.14.14-.18.18-.2.16-.38.36-.54.6-.12.2-.24.4-.36.6-.36.6-.73,1.23-1.09,1.87-.32.65-.69,1.29-1.09,1.94-.12.24-.24.48-.36.73-.08.24-.2.48-.36.73-.32.52-.62,1.05-.91,1.57-.24.52-.52,1.05-.85,1.57-.08.12-.14.26-.18.42-.04.12-.1.24-.18.36-.24.36-.46.75-.67,1.15-.16.4-.38.81-.67,1.21-.24.36-.46.75-.67,1.15-.16.4-.36.81-.6,1.21-.73,1.17-1.39,2.36-2,3.57-.6,1.17-1.23,2.34-1.87,3.51-.12.12-.2.24-.24.36,0,.12-.06.24-.18.36-.28.44-.54.91-.79,1.39-.2.44-.44.89-.73,1.33-.16.28-.32.54-.48.79-.16.24-.34.44-.54.6-.24.16-.46.26-.67.3-.2,0-.46.04-.79.12h-1.39c-.28,0-.62.02-1.03.06h-1.15c-.36,0-.71-.02-1.03-.06s-.54-.12-.67-.24c-.28-.2-.46-.42-.54-.67-.04-.28-.12-.6-.24-.97-.08-.48-.14-.97-.18-1.45-.04-.52-.12-1.03-.24-1.51l-.06-.54c-.12-.48-.2-.99-.24-1.51-.04-.56-.12-1.09-.24-1.57v-.3c0-.12-.02-.24-.06-.36-.12-.36-.2-.75-.24-1.15-.04-.4-.1-.81-.18-1.21v-.3c0-.12-.02-.22-.06-.3-.08-.4-.14-.81-.18-1.21,0-.4-.06-.81-.18-1.21-.16-.81-.3-1.65-.42-2.54-.08-.89-.2-1.75-.36-2.6-.16-1.01-.3-2.04-.42-3.08-.08-1.05-.26-2.06-.54-3.02-.08-.56-.2-1.03-.36-1.39-.08-.08-.16-.14-.24-.18-.04-.08-.12-.08-.24,0-.24.12-.4.32-.48.6-.04.28-.12.56-.24.85-.16.28-.26.58-.3.91-.04.28-.08.58-.12.91-.08.44-.18.89-.3,1.33-.08.44-.18.89-.3,1.33l-3.21,16.09-.6,2.96c-.08.32-.16.65-.24.97-.04.32-.16.58-.36.79-.2.28-.54.46-1.03.54-.28.08-.58.12-.91.12-.32-.04-.65-.06-.97-.06h-4.35c-.36-.04-.65-.16-.85-.36-.2-.2-.28-.5-.24-.91.08-.44.16-.89.24-1.33l1.03-5.32,4.54-22.5,1.69-8.47c.04-.24.08-.52.12-.85.08-.36.16-.71.24-1.03.08-.32.16-.62.24-.91.12-.32.22-.56.3-.73.24-.28.6-.48,1.09-.6.12-.04.2-.04.24,0,.08,0,.18-.02.3-.06h0Z"/>
  <path id="ag" data-name="path4319" class="ce" d="M110.34,143.31c0,.44-.04.89-.12,1.33s-.34.75-.79.91c-.28.12-.58.18-.91.18h-5.32c-.32-.04-.56-.14-.73-.3-.24-.16-.4-.38-.48-.67-.08-.32-.22-.58-.42-.79-.08-.08-.18-.14-.3-.18-.08-.08-.22-.1-.42-.06-.24.08-.46.18-.67.3-.2.12-.4.22-.6.3-.24.16-.5.3-.79.42-.24.12-.5.24-.79.36-.56.24-1.15.44-1.75.6-.6.12-1.21.26-1.81.42-.32.08-.62.12-.91.12-.24.04-.5.08-.79.12h-.36c-.12.04-.24.06-.36.06h-.67c-.44.08-.85.08-1.21,0h-.54c-.28-.08-.56-.12-.85-.12-.24.04-.48.02-.73-.06-.36-.08-.73-.16-1.09-.24-.36-.04-.69-.14-.97-.3-1.09-.44-1.98-1.01-2.66-1.69-.69-.73-1.15-1.67-1.39-2.84-.08-.28-.14-.58-.18-.91,0-.32-.02-.67-.06-1.03-.04-.2-.04-.4,0-.6.08-.2.12-.4.12-.6,0-.12.02-.36.06-.73.08-.4.16-.69.24-.85.16-.4.26-.75.3-1.03.2-.44.4-.89.6-1.33.24-.48.5-.91.79-1.27.89-1.17,1.83-2.06,2.84-2.66,1.01-.6,2.26-1.13,3.75-1.57.56-.2,1.13-.34,1.69-.42.56-.08,1.15-.18,1.75-.3.32-.08.67-.12,1.03-.12.4-.04.79-.1,1.15-.18.28-.08.56-.1.85-.06.28,0,.6-.04.97-.12.28-.08.56-.12.85-.12s.58-.04.91-.12c.89-.2,1.69-.36,2.42-.48.77-.16,1.49-.52,2.18-1.09.4-.36.73-.77.97-1.21.04-.12.06-.22.06-.3s.02-.16.06-.24c.08-.08.12-.2.12-.36.04-.16.08-.28.12-.36v-.91c-.16-1.21-.85-2.04-2.06-2.48-.32-.12-.75-.2-1.27-.24-.48-.08-.99-.1-1.51-.06-.52,0-1.05.04-1.57.12-.48.08-.91.18-1.27.3-.28.08-.54.2-.79.36-.24.12-.48.26-.73.42s-.5.38-.79.67c-.28.28-.48.54-.6.79-.28.4-.52.79-.73,1.15-.2.36-.54.6-1.03.73-.32.08-.67.12-1.03.12h-3.39c-.2,0-.42.02-.67.06-.2,0-.36-.02-.48-.06h-.54c-.08-.04-.18-.06-.3-.06s-.22-.04-.3-.12c-.28-.08-.44-.34-.48-.79,0-.2.04-.4.12-.6.08-.2.16-.38.24-.54.2-.44.4-.85.6-1.21.24-.4.48-.77.73-1.09.16-.2.32-.4.48-.6.16-.2.32-.4.48-.6.4-.44.89-.87,1.45-1.27.12-.04.26-.14.42-.3.24-.16.44-.3.6-.42.2-.12.42-.24.67-.36.77-.44,1.55-.79,2.36-1.03.85-.28,1.69-.54,2.54-.79.52-.12,1.05-.2,1.57-.24.52-.04,1.07-.12,1.63-.24.16-.04.4-.04.73,0,.32.04.54.02.67-.06,1.65-.04,3.21.02,4.66.18,1.49.16,2.8.46,3.93.91,1.17.44,2.12,1.05,2.84,1.81.77.73,1.27,1.67,1.51,2.84.12.69.12,1.47,0,2.36s-.28,1.79-.48,2.72l-2.72,13.49c-.12.77-.26,1.55-.42,2.36-.16.77-.22,1.47-.18,2.12,0,.12-.02.26-.06.42v.36h0ZM103.32,134c.08-.2.14-.42.18-.67.04-.28.06-.52.06-.73,0-.24.02-.46.06-.67.04-.2-.02-.36-.18-.48-.16-.16-.44-.24-.85-.24-.16.04-.3.08-.42.12-.12,0-.28.02-.48.06-.28.08-.58.14-.91.18-.32.04-.67.1-1.03.18-.12.04-.3.06-.54.06-.56.12-1.11.2-1.63.24-.52.04-1.05.14-1.57.3-.32.08-.65.16-.97.24-.28.04-.56.12-.85.24-.93.36-1.75.91-2.48,1.63s-1.15,1.73-1.27,3.02c-.04.69.08,1.25.36,1.69.16.44.5.81,1.03,1.09.52.24,1.11.42,1.75.54.65.12,1.33.16,2.06.12.77-.08,1.49-.22,2.18-.42,1.13-.32,2.06-.83,2.78-1.51.77-.73,1.41-1.61,1.94-2.66.12-.28.22-.56.3-.85.08-.32.2-.65.36-.97l.12-.54h0Z"/>
  <path id="ah" data-name="path4321" class="cb" d="M121.36,114.52h4.41c.44,0,.87.02,1.27.06.4,0,.73.08.97.24.4.28.6.81.6,1.57.04.73.12,1.37.24,1.94.16,1.33.3,2.7.42,4.11.12,1.37.26,2.74.42,4.11.16.97.28,1.96.36,2.96.08,1.01.2,1.98.36,2.9.04.36.08.75.12,1.15.08.4.34.6.79.6.12-.08.2-.12.24-.12.04-.04.1-.1.18-.18.16-.2.3-.4.42-.6.12-.2.24-.42.36-.67.32-.44.56-.91.73-1.39.2-.48.44-.95.73-1.39.89-1.69,1.75-3.39,2.6-5.08.85-1.73,1.71-3.45,2.6-5.14.32-.48.58-.97.79-1.45.24-.52.48-1.01.73-1.45.16-.32.32-.65.48-.97.2-.32.44-.58.73-.79.12-.08.4-.2.85-.36.24-.08.5-.1.79-.06h3.75c.44,0,.85.02,1.21.06.4,0,.69.1.85.3.2.2.22.5.06.91-.12.36-.24.67-.36.91-.32.56-.65,1.17-.97,1.81-.32.6-.65,1.19-.97,1.75-.16.28-.3.56-.42.85-.12.24-.24.48-.36.73-.28.44-.54.89-.79,1.33s-.48.89-.73,1.33c-.04.12-.1.26-.18.42-.04.12-.1.24-.18.36-.36.6-.71,1.23-1.03,1.87-.32.6-.65,1.21-.97,1.81-.69,1.21-1.35,2.46-2,3.75-.65,1.25-1.33,2.48-2.06,3.69-.32.56-.62,1.13-.91,1.69-.24.52-.52,1.07-.85,1.63-.12.2-.22.38-.3.54-.08.12-.18.28-.3.48-.24.44-.48.91-.73,1.39-.2.44-.44.89-.73,1.33-.28.44-.54.87-.79,1.27-.24.36-.58.62-1.03.79-.36.12-.73.18-1.09.18-.36-.04-.73-.06-1.09-.06h-5.26c-.4,0-.75-.08-1.03-.24-.24-.2-.4-.44-.48-.73-.04-.32-.08-.67-.12-1.03-.12-.48-.22-.99-.3-1.51-.04-.52-.1-1.03-.18-1.51-.04-.16-.06-.3-.06-.42,0-.16-.02-.34-.06-.54-.12-.48-.2-.99-.24-1.51s-.12-1.05-.24-1.57c-.04-.2-.06-.38-.06-.54,0-.2-.02-.4-.06-.6-.08-.36-.14-.73-.18-1.09-.04-.4-.1-.79-.18-1.15-.04-.12-.06-.24-.06-.36.04-.16.04-.3,0-.42-.08-.36-.14-.73-.18-1.09-.04-.36-.1-.75-.18-1.15-.16-.93-.3-1.87-.42-2.84-.12-1.01-.24-2-.36-2.96-.24-1.09-.42-2.18-.54-3.27-.08-1.13-.22-2.24-.42-3.33l-.18-1.63c-.04-.12-.06-.26-.06-.42.04-.2.12-.38.24-.54.16-.28.48-.48.97-.6.2,0,.34-.02.42-.06h0Z"/>
  <path id="ai" data-name="path4323" class="ce" d="M180.48,129.83c0,.32-.08.69-.24,1.09s-.36.67-.6.79c-.2.16-.5.28-.91.36-.4.04-.85.08-1.33.12-.44,0-.91,0-1.39,0-.44-.04-.85-.06-1.21-.06h-15.6c-.24,0-.46.04-.67.12-.36.16-.6.32-.73.48-.08.08-.2.24-.36.48-.12.2-.18.4-.18.6.04.24.04.48,0,.73,0,.2.02.42.06.67.12.97.34,1.77.67,2.42.36.6.89,1.15,1.57,1.63.28.2.58.34.91.42.36.04.71.12,1.03.24.32.08.75.14,1.27.18.56.04,1.07.02,1.51-.06h.54c.4-.08.79-.16,1.15-.24.36-.12.73-.24,1.09-.36.44-.2.95-.46,1.51-.79s1.01-.65,1.33-.97c.24-.28.5-.54.79-.79.28-.28.58-.48.91-.6.44-.2.97-.28,1.57-.24.65,0,1.23,0,1.75,0,.24,0,.48,0,.73,0,.28-.04.52-.02.73.06h.6c.36.08.62.18.79.3.12.08.16.26.12.54,0,.28-.06.52-.18.73-.32.56-.67,1.07-1.03,1.51-.32.44-.69.89-1.09,1.33-1.13,1.33-2.34,2.4-3.63,3.21s-2.84,1.49-4.66,2.06c-.48.16-.95.26-1.39.3s-.93.12-1.45.24c-.16.04-.34.04-.54,0-.16,0-.32.02-.48.06h-.67c-.24.08-.48.1-.73.06-.24,0-.46-.02-.67-.06-.32-.04-.6-.04-.85,0-.24.04-.5.02-.79-.06-.2-.08-.42-.12-.67-.12s-.44-.04-.6-.12c-.44-.08-.89-.18-1.33-.3-.4-.08-.77-.22-1.09-.42-.4-.16-.79-.3-1.15-.42-.36-.16-.69-.34-.97-.54-1.13-.81-2.1-1.73-2.9-2.78-.77-1.09-1.33-2.34-1.69-3.75-.12-.44-.2-.89-.24-1.33,0-.48-.06-.97-.18-1.45v-.42c.04-.16.06-.32.06-.48-.04-.48-.04-1.01,0-1.57.08-.56.16-1.13.24-1.69.04-.2.06-.42.06-.67.04-.24.1-.46.18-.67l.18-.73.48-1.45c.28-.69.54-1.35.79-2,.24-.65.54-1.25.91-1.81,2.58-4.19,6.13-7.16,10.64-8.89.6-.24,1.21-.4,1.81-.48.6-.12,1.25-.26,1.94-.42.32-.04.62-.06.91-.06s.58-.02.91-.06c2.06-.04,3.77.2,5.14.73,1.37.48,2.56,1.13,3.57,1.94.32.24.62.52.91.85.32.28.58.58.79.91.08.2.22.36.42.48.24.44.44.91.6,1.39.2.44.42.91.67,1.39.12.36.2.75.24,1.15.08.36.16.77.24,1.21.08.52.12,1.07.12,1.63.04.56.08,1.13.12,1.69,0,.32-.06.69-.18,1.09-.08.36-.1.71-.06,1.03l-.12.67h0ZM172.07,126.26c.36-.4.48-.89.36-1.45-.08-.6-.14-1.05-.18-1.33-.36-1.09-.95-1.92-1.75-2.48-.81-.6-2.04-.93-3.69-.97-.12.08-.26.1-.42.06-.16-.04-.3-.04-.42,0-.24.08-.48.14-.73.18-.24,0-.46.04-.67.12-1.9.56-3.43,1.67-4.6,3.33-.12.16-.26.38-.42.67-.16.24-.28.5-.36.79-.08.24-.12.48-.12.73s.1.44.3.6c.28.2.71.3,1.27.3h10.1c.65-.04,1.09-.22,1.33-.54Z"/>
  <path id="aj" data-name="path4325" class="ce" d="M206.56,113.74c2.42-.08,4.35.26,5.81,1.03,1.49.77,2.54,1.9,3.14,3.39.2.44.32.93.36,1.45.08.48.14.99.18,1.51.04.32.04.62,0,.91s-.04.56,0,.85c-.08.24-.1.4-.06.48-.04.56-.12,1.15-.24,1.75s-.24,1.19-.36,1.75l-1.03,5.38-2,9.8c-.16.77-.32,1.51-.48,2.24-.16.69-.54,1.13-1.15,1.33-.24.08-.52.12-.85.12h-4.23c-.48,0-.91-.02-1.27-.06-.36-.08-.62-.26-.79-.54-.12-.24-.16-.54-.12-.91.08-.4.16-.83.24-1.27l.85-4.23,1.81-9.01c.28-1.49.48-2.86.6-4.11.16-1.29.02-2.38-.42-3.27-.4-.81-1.11-1.37-2.12-1.69-.2-.08-.42-.12-.67-.12-.2,0-.4-.04-.6-.12-.2-.04-.46-.04-.79,0-.28,0-.5.02-.67.06-.2.04-.36.06-.48.06s-.24.02-.36.06c-.97.24-1.77.56-2.42.97-1.49.93-2.54,2.28-3.14,4.05-.56,1.77-1.07,3.77-1.51,5.99l-1.51,7.56-.73,3.69c-.08.36-.16.73-.24,1.09-.08.36-.2.67-.36.91-.28.44-.67.71-1.15.79-.44.08-.99.12-1.63.12h-3.02c-.44,0-.89-.02-1.33-.06s-.73-.18-.85-.42c-.24-.36-.28-.89-.12-1.57s.3-1.33.42-1.94l1.63-8.23,2.66-13.31.67-3.08c.08-.44.16-.85.24-1.21.08-.36.26-.67.54-.91.08-.12.22-.2.42-.24.2-.08.4-.14.6-.18h.3c.2-.04.4-.06.6-.06h3.21c.32,0,.62.02.91.06.32,0,.6.04.85.12.24.12.38.3.42.54.08.24.12.52.12.85,0,.16-.02.3-.06.42s-.04.24,0,.36c.04.2.08.32.12.36.08.04.18.1.3.18.4.04.79-.1,1.15-.42.36-.36.73-.65,1.09-.85,1.25-.81,2.58-1.45,3.99-1.94.4-.12.79-.2,1.15-.24.4-.04.85-.1,1.33-.18.12-.04.3-.04.54,0,.24,0,.4-.02.48-.06Z"/>
  <g id="ak" data-name="text9112">
    <path id="al" data-name="path4328" class="ce" d="M221.53,113.69s.06.1.06.21-.02.2-.06.29v.1c-.04.07-.08.13-.12.18-.03.04-.08.07-.16.1-.07.02-.17.02-.3.02-.13,0-.24-.01-.33-.01h-.18s-.08.02-.11.01c-.03,0-.06,0-.1.01-.09.03-.17.11-.23.23-.02.04-.04.09-.05.15,0,.06-.02.11-.02.17l-.58,2.85s-.01.08-.01.11,0,.06-.02.1l-.02.1s-.02.05-.02.07c0,.02-.01.04-.04.06-.03.06-.08.11-.16.13-.04.02-.09.02-.15.02h-.54c-.14,0-.23-.03-.28-.1-.02-.05-.03-.1-.02-.17.02-.06.03-.14.05-.22l.57-2.85s.02-.08.02-.12c.02-.04.02-.08.01-.11l.02-.17c0-.13-.03-.21-.12-.24-.07-.04-.18-.06-.33-.05-.14,0-.26.01-.36.01-.04,0-.08,0-.12.01-.03,0-.06,0-.08-.01-.03-.02-.06-.02-.08-.01-.02,0-.05,0-.07-.01-.08-.04-.12-.1-.11-.19s.02-.19.05-.31c0-.05.02-.09.02-.13.02-.04.04-.08.06-.12.02-.04.06-.07.1-.08.04-.02.08-.04.12-.06.02,0,.04,0,.05,0,.02,0,.04,0,.06-.01h3.23c.07,0,.14,0,.21.01.06,0,.12.02.16.05h0ZM227.97,113.72c.03.06.04.12.02.19,0,.07-.02.15-.04.24l-.79,3.93c-.02.09-.04.17-.06.24-.02.06-.04.12-.08.17-.06.06-.15.1-.27.1h-.34s-.1,0-.16.01c-.05,0-.09,0-.12-.02-.07-.02-.12-.06-.13-.11,0-.05-.01-.11-.01-.18l.04-.21s0-.05.01-.08c0-.04.02-.08.02-.11l.31-1.54c.02-.1.03-.19.05-.29.02-.1.04-.19.04-.27,0-.04-.01-.07-.01-.1,0-.03-.01-.06-.04-.07,0,0-.02-.01-.04-.01-.02.02-.05.03-.08.05-.08.1-.15.21-.22.33-.06.12-.13.24-.21.35-.15.25-.29.5-.42.76-.14.25-.28.5-.42.74-.06.11-.13.24-.21.39-.07.14-.16.24-.25.3-.05.03-.1.05-.17.06h-.39s-.08-.03-.11-.04c-.03-.02-.06-.04-.08-.06-.02-.02-.04-.06-.05-.1,0-.04-.02-.08-.02-.12-.02-.07-.04-.15-.05-.22,0-.08-.02-.16-.04-.24-.05-.23-.09-.47-.12-.71-.03-.25-.07-.49-.12-.73-.02-.14-.05-.27-.07-.41-.02-.14-.06-.25-.13-.35-.02,0-.03,0-.04.01h-.02s-.07.07-.08.11c-.02.04-.04.08-.05.12,0,.03,0,.07-.02.11l-.04.21s-.03.06-.04.1-.01.06-.01.08l-.29,1.4c-.02.1-.04.23-.07.39-.02.15-.06.25-.11.31-.02.02-.05.04-.07.06-.02.02-.04.03-.06.04-.04.02-.09.03-.15.04h-.48c-.1,0-.19-.02-.24-.07-.04-.03-.06-.08-.06-.16,0-.07.02-.15.04-.24l.8-3.99c.02-.07.03-.14.05-.21.02-.07.05-.13.08-.17.04-.06.1-.09.19-.11.02,0,.04,0,.05,0,.02,0,.04,0,.06-.01h1.05c.08,0,.14.02.18.06.06.05.1.12.11.23.02.1.04.2.06.29.04.23.08.46.12.69.04.23.08.46.12.69.03.12.06.25.07.37.02.13.05.25.07.37.02.05.03.1.04.16.02.05.05.08.1.1.04.02.08,0,.11-.02.04-.03.07-.06.08-.08.08-.09.15-.18.19-.28.06-.1.11-.21.17-.3.17-.27.33-.54.47-.81.15-.28.31-.56.48-.82.06-.11.13-.23.19-.35.07-.13.17-.22.29-.27.06-.02.11-.02.17-.02h.87s.09,0,.13,0h.06s.06.03.1.04c.04,0,.06.02.07.05h0Z"/>
  </g>
  <g id="am" data-name="g4701">
    <path id="ao" data-name="path4710" class="bw" d="M147.96,113.29c-.73.3-2.02,1.26-3.59,2.7l.89,2.5c1.04-1.11,2.09-2.09,3.11-2.91.07-.06.12-.1.12-.1-.04.04-.08.06-.12.1-.33.27-1.35,1.15-2.95,2.98,1.27.12,3.24.15,4.86.11.86-2.56.11-3.9.11-3.9,0,0-.91-2.09-2.42-1.47Z"/>
    <path id="ap" data-name="path4712" class="cb" d="M143.93,126.21s.02,0,.03,0h-.18s-.03,0-.03,0c.07,0,.13,0,.19,0Z"/>
    <path id="aq" data-name="path4714" class="cb" d="M142.07,130.18c-.1,0-.21.01-.31.01.11,0,.21,0,.31-.01Z"/>
    <path id="ar" data-name="path4716" class="cb" d="M132.17,138.25s.03-.07.06-.1c.38-.67.74-1.33,1.11-1.97.41-.71.81-1.41,1.21-2.08.41-.7.83-1.39,1.23-2.04.42-.69.83-1.35,1.24-1.99.33-.52.65-1.02.97-1.51.11-.16.21-.32.32-.48.21-.31.41-.62.61-.92.19-.28.37-.54.55-.81.06-.09.12-.18.18-.26.01-.01.02-.03.03-.04h-.15s-.09-.26-.09-.26c-.01.02-.03.04-.04.07-.28.39-.56.8-.83,1.21-.16.23-.32.47-.48.71-.44.66-.87,1.32-1.3,1.99-.44.67-.86,1.36-1.28,2.03-.42.67-.82,1.34-1.22,2.01-.4.67-.79,1.33-1.18,2-.41.69-.8,1.38-1.18,2.07-.09.15-.18.31-.26.46-.31.55-.61,1.09-.9,1.63l.14.41h.17s.02-.02.02-.04c.36-.73.74-1.42,1.11-2.08Z"/>
    <path id="as" data-name="path4720" class="bv" d="M140.96,132.16c-.17,0-.33,0-.49,0h0c.08,0,.17,0,.25,0,.08,0,.16,0,.24,0Z"/>
    <path id="at" data-name="path4722" class="bx" d="M140.96,132.16c-.17,0-.33,0-.49,0h0c.08,0,.17,0,.25,0,.08,0,.16,0,.24,0Z"/>
    <path id="au" data-name="path4724" class="bv" d="M141.68,130.19h0s0,0,0,0c.02,0,.05,0,.07,0,.11,0,.21,0,.31-.01-.12,0-.25,0-.39,0h0Z"/>
    <path id="av" data-name="path4726" class="bx" d="M141.68,130.19h0s0,0,0,0c.02,0,.05,0,.07,0,.11,0,.21,0,.31-.01-.12,0-.25,0-.39,0h0Z"/>
    <path id="ax" data-name="path4737" class="cg" d="M140.74,123.94c.48-.64.96-1.27,1.43-1.88.49-.63.99-1.24,1.5-1.83.03-.04.06-.07.09-.1.49-.58.99-1.13,1.48-1.65l-.89-2.49c-.1.1-.22.2-.33.3-.42.39-.86.81-1.31,1.26-.51.51-1.03,1.05-1.57,1.61-.5.53-1,1.08-1.51,1.66-.43.49-.87,1-1.3,1.51-.02.02-.03.04-.05.06l1.13,3.39c.45-.61.89-1.23,1.34-1.84Z"/>
    <path id="az" data-name="path4748" class="ca" d="M130.85,140.67c-.29.55-.6,1.11-.9,1.69,0,0-.01.01-.01.02-.05.08-.09.16-.13.24-.2.39-.38.74-.79,1.53.44.29.74.9,1,1.6.06-.67-.12-1.34-.57-1.9,2.3.44,4.4.15,5.67-1.4.11-.14.22-.29.33-.44-.56.52-1.18.7-2.27.47h0s0,0,0,0c1.72-.49,2.63-1.07,3.52-2.11.21-.25.42-.52.64-.82-1.63,1.25-3.32,1.41-5,.85l-1.31-.05c-.06.11-.11.2-.17.31Z"/>
    <path id="bb" data-name="path4759" class="ci" d="M131.88,137.86c.39-.68.78-1.37,1.18-2.07.38-.67.78-1.33,1.18-2s.81-1.34,1.22-2.01c.42-.68.85-1.36,1.28-2.03.43-.67.87-1.33,1.3-1.99.16-.24.32-.47.48-.71.27-.4.55-.8.83-1.21.01-.02.03-.04.04-.07l-1.12-3.38s-.06.08-.1.12c-.46.56-.93,1.12-1.38,1.7-.46.59-.92,1.19-1.37,1.8-.38.52-.75,1.04-1.12,1.57-.07.1-.15.22-.22.32-.45.66-.87,1.32-1.25,1.94-.43.71-.82,1.39-1.17,2.03-.23.43-.44.84-.64,1.23-.16.34-.32.68-.48,1.02-.36.8-.69,1.6-.98,2.41l1.14,3.41c.29-.54.6-1.08.9-1.63.09-.15.18-.3.26-.46Z"/>
    <path id="bd" data-name="path4770" class="cf" d="M129.53,136.65c-.35.98-.64,1.97-.86,2.97,0,.03-.02.07-.02.1-.38-.88-1.61-1.86-1.61-1.85.76,1.54,1.29,3.03,1.19,4.4-.53.03-1.21-.23-1.98-.64.74.9,1.34,1.21,1.58,1.31-.79-.07-1.68.35-2.58.85,1.27-.31,2.27-.36,2.93-.1-1.56,2.95-3.16,6.22-4.79,9.7.35-.05.59-.25.74-.54.29-.63,2.23-4.77,5.11-10.16.08-.15.17-.3.25-.46.02-.05.05-.08.07-.13.3-.56.62-1.14.94-1.73.08-.14.15-.27.22-.4h0s-1.14-3.41-1.14-3.41c-.02.04-.03.07-.05.11Z"/>
    <path id="bf" data-name="path4781" class="cl" d="M139.62,126.09c-.06.09-.12.17-.18.26-.18.27-.37.54-.55.81-.2.3-.4.61-.61.92-.11.16-.21.31-.32.48-.32.49-.64.99-.97,1.51-.41.64-.81,1.3-1.24,1.99-.4.65-.81,1.34-1.23,2.04-.39.67-.8,1.36-1.21,2.08-.36.64-.73,1.29-1.11,1.97-.02.03-.03.07-.06.1-.37.67-.75,1.36-1.13,2.06-.01.01-.02.03-.02.05l1.31.05s-.05-.02-.08-.03c1.58.03,3.8-.82,5.34-2.05.71-.57,1.37-1.26,2.02-2.09.48-.62.95-1.31,1.41-2.1.4-.68.81-1.42,1.21-2.23-.38.13-.81.21-1.27.24-.08,0-.17,0-.25.01s-.16,0-.25,0h0c1.53-.34,2.59-1.28,3.44-2.5-.41.2-1.08.45-1.85.51-.1,0-.21.01-.31.01-.02,0-.05,0-.08,0h0c.53-.14.99-.31,1.4-.53.09-.04.17-.1.25-.15.13-.08.25-.17.37-.26.07-.06.15-.12.22-.18.17-.15.33-.31.48-.49.05-.06.1-.11.14-.17.06-.09.12-.17.18-.25.26-.37.47-.71.65-1.01.09-.15.17-.29.23-.42.02-.05.06-.1.08-.15.07-.15.14-.27.19-.39.07-.17.13-.31.16-.41h0c-.05.03-.12.06-.19.09-.47.19-1.25.32-1.87.35l1.21.05-1.21-.05s-.02,0-.03,0c-.06,0-.12,0-.19,0,0,0,.03,0,.03-.01l-4.13-.15s0,.05-.02.06Z"/>
    <path id="bh" data-name="path4792" class="ck" d="M145.4,118.56c-.44.5-.93,1.08-1.46,1.72-.03.04-.06.07-.08.1-.46.56-.94,1.18-1.46,1.87-.45.59-.92,1.22-1.41,1.91-.43.59-.87,1.23-1.34,1.89l4.13.15c1.26-.37,1.86-.78,2.48-1.42.16-.17.33-.36.5-.56.51-.59,1.03-1.24,1.49-1.9.45-.64.87-1.27,1.19-1.85.21-.37.38-.71.52-1.02.11-.27.21-.53.29-.78-1.61.03-3.58,0-4.85-.11Z"/>
    <path id="bi" data-name="path4794" class="bv" d="M140.72,132.17c-.08,0-.16,0-.25,0h0c.08,0,.17,0,.25,0Z"/>
    <path id="bj" data-name="path4796" class="bx" d="M140.72,132.17c-.08,0-.16,0-.25,0h0c.08,0,.17,0,.25,0Z"/>
    <path id="bl" data-name="path4807" class="bt" d="M140.72,132.17c-.08,0-.16,0-.25,0h0c.08,0,.17,0,.25,0Z"/>
    <path id="bm" data-name="path4809" class="bv" d="M141.67,130.19s.05,0,.08,0c-.02,0-.05,0-.08,0h0Z"/>
    <path id="bn" data-name="path4811" class="bx" d="M141.67,130.19s.05,0,.08,0c-.02,0-.05,0-.08,0h0Z"/>
    <path id="bp" data-name="path4822" class="bs" d="M141.67,130.19s.05,0,.08,0c-.02,0-.05,0-.08,0h0Z"/>
  </g>
</svg>