<?xml version="1.0" encoding="UTF-8"?>
<svg id="a" data-name="icon" xmlns="http://www.w3.org/2000/svg" viewBox="0 0 256 256">
  <defs>
    <style>
      .b {
        fill: #007396;
      }

      .b, .c, .d {
        stroke-width: 0px;
      }

      .c {
        fill: #fff;
      }

      .d {
        fill: #f58219;
      }
    </style>
  </defs>
  <rect class="b" width="256" height="256" rx="60" ry="60"/>
  <path class="c" d="M101.89,182.62s-7.68,4.67,5.34,6.01c15.73,2,24.04,1.67,41.41-1.67,0,0,4.67,3.01,11.02,5.34-39.07,16.7-88.5-1-57.77-9.69ZM96.88,160.91s-8.35,6.35,4.67,7.68c17.03,1.67,30.39,2,53.43-2.67,0,0,3.01,3.34,8.01,5.01-47.08,14.02-99.85,1.33-66.12-10.02h0ZM189.05,198.98s5.68,4.67-6.35,8.35c-22.38,6.68-93.84,8.68-113.88,0-7.01-3.01,6.35-7.35,10.69-8.01,4.34-1,6.68-1,6.68-1-7.68-5.34-51.09,11.02-22.04,15.73,79.81,13.03,145.6-5.68,124.9-15.03v-.03ZM105.57,138.2s-36.4,8.68-13.03,11.69c10.02,1.33,29.72,1,48.09-.34,15.03-1.33,30.09-4.01,30.09-4.01,0,0-5.34,2.34-9.02,4.67-37.1,9.69-108.23,5.35-87.86-4.67,17.37-8.35,31.72-7.35,31.72-7.35h0ZM170.68,174.6c37.41-19.37,20.04-38.07,8.01-35.73-3.01.67-4.34,1.33-4.34,1.33,0,0,1-2,3.34-2.67,23.71-8.35,42.41,25.05-7.68,38.07,0,0,.33-.34.67-1h0ZM109.24,227.36c36.07,2.34,91.17-1.33,92.5-18.37,0,0-2.67,6.68-29.72,11.69-30.72,5.68-68.8,5.01-91.17,1.33,0,0,4.67,4.01,28.39,5.34h0Z"/>
  <path class="d" d="M147.94,28s20.7,21.04-19.7,52.76c-32.39,25.71-7.35,40.41,0,57.1-19.03-17.03-32.72-32.06-23.38-46.08,13.72-20.69,51.46-30.71,43.08-63.78ZM137.26,123.84c9.68,11.02-2.67,21.04-2.67,21.04,0,0,24.71-12.69,13.36-28.39-10.35-15.03-18.37-22.38,25.05-47.43,0,0-68.46,17.03-35.73,54.77h0Z"/>
</svg>