<?xml version="1.0" encoding="UTF-8"?>
<svg id="a" data-name="icon" xmlns="http://www.w3.org/2000/svg" viewBox="0 0 256 256">
  <defs>
    <style>
      .b {
        fill: #fff;
      }

      .b, .c {
        stroke-width: 0px;
      }

      .c {
        fill: #394aab;
      }
    </style>
  </defs>
  <rect class="c" width="256" height="256" rx="60" ry="60"/>
  <path class="b" d="M134.35,33c35.14,0,65.83,19.09,82.26,47.46l-.16-.27-41.35,23.81c-8.15-13.79-23.08-23.1-40.21-23.29h-.54c-26.13,0-47.31,21.18-47.31,47.3,0,8.54,2.28,16.55,6.24,23.47,8.15,14.24,23.48,23.84,41.07,23.84s33.11-9.72,41.22-24.11l-.2.34,41.29,23.92c-16.25,28.13-46.52,47.16-81.25,47.54h-1.06c-35.26,0-66.03-19.2-82.42-47.72-8-13.92-12.58-30.06-12.58-47.28,0-52.47,42.53-95,95-95Z"/>
</svg>