<?xml version="1.0" encoding="UTF-8"?>
<svg id="a" data-name="icon" xmlns="http://www.w3.org/2000/svg" viewBox="0 0 256 256">
  <defs>
    <style>
      .b {
        fill: #0877b9;
      }

      .b, .c, .d, .e, .f {
        stroke-width: 0px;
      }

      .c {
        fill: #3c99d4;
      }

      .d {
        fill: #242938;
      }

      .e {
        fill: #2489ca;
      }

      .f {
        fill: #1070b3;
      }
    </style>
  </defs>
  <rect class="d" width="256" height="256" rx="60" ry="60"/>
  <path class="e" d="M29.9,98.07s-4.87-3.51.97-8.2l13.62-12.18s3.9-4.1,8.02-.53l125.68,95.15v45.63s-.06,7.17-9.26,6.37L29.9,98.07Z"/>
  <path class="f" d="M62.3,127.48l-32.39,29.45s-3.33,2.48,0,6.9l15.04,13.68s3.57,3.84,8.85-.53l34.34-26.04-25.84-23.46Z"/>
  <path class="b" d="M119.17,127.72l59.41-45.36-.39-45.38s-2.54-9.9-11-4.75l-79.06,71.95,31.03,23.55Z"/>
  <path class="c" d="M168.94,224.37c3.45,3.53,7.63,2.37,7.63,2.37l46.3-22.81c5.93-4.04,5.09-9.05,5.09-9.05V58.65c0-5.99-6.13-8.06-6.13-8.06l-40.13-19.34c-8.77-5.42-14.51.97-14.51.97,0,0,7.39-5.32,11,4.75v180.13c0,1.24-.26,2.46-.79,3.55-1.06,2.13-3.35,4.12-8.85,3.29l.38.43Z"/>
</svg>