<?xml version="1.0" encoding="UTF-8"?>
<svg id="a" data-name="icon" xmlns="http://www.w3.org/2000/svg" xmlns:xlink="http://www.w3.org/1999/xlink" viewBox="0 0 256 256">
  <defs>
    <style>
      .c {
        fill: none;
      }

      .c, .d, .e {
        stroke-width: 0px;
      }

      .f {
        clip-path: url(#b);
      }

      .d {
        fill: #fff;
      }

      .e {
        fill: #f34f29;
      }
    </style>
    <clipPath id="b">
      <rect class="c" x="28" y="28" width="200" height="200"/>
    </clipPath>
  </defs>
  <rect class="e" width="256" height="256" rx="60" ry="60"/>
  <g class="f">
    <path class="d" d="M224.23,119.09L136.91,31.78c-5.03-5.03-13.18-5.03-18.22,0,0,0,0,0,0,0l-18.13,18.14,23,23c5.52-1.87,11.62-.45,15.74,3.67,4.14,4.15,5.55,10.3,3.63,15.84l22.17,22.17c5.54-1.92,11.7-.51,15.84,3.64,5.98,5.98,5.99,15.69,0,21.67h0c-5.99,5.99-15.7,5.99-21.69,0-4.37-4.38-5.68-10.95-3.33-16.67l-20.68-20.67v54.41c7.59,3.75,10.7,12.94,6.95,20.52-.74,1.5-1.72,2.87-2.9,4.05-5.98,5.98-15.69,5.99-21.67,0h0c-5.99-5.98-5.99-15.69,0-21.67,0,0,0,0,0,0,1.43-1.44,3.14-2.58,5.01-3.35v-54.91c-7.83-3.23-11.57-12.19-8.34-20.03,0-.02.02-.05.03-.07l-22.68-22.68-59.88,59.87c-5.02,5.03-5.02,13.19,0,18.22l87.33,87.33c5.03,5.02,13.18,5.02,18.22,0l86.92-86.92c5.02-5.03,5.02-13.19,0-18.22"/>
  </g>
</svg>