<?xml version="1.0" encoding="UTF-8"?>
<svg id="a" data-name="icon" xmlns="http://www.w3.org/2000/svg" viewBox="0 0 256 256">
  <defs>
    <style>
      .c {
        fill: #f8f8f8;
      }

      .c, .d {
        stroke-width: 0px;
      }

      .d {
        fill: #231f20;
      }
    </style>
  </defs>
  <rect class="d" width="256" height="256" rx="60" ry="60"/>
  <path id="b" data-name="ICON" class="c" d="M217.13,64.28c-5.82-5.77-13.66-9.08-21.89-9.22-8.22-.14-16.18,2.9-22.19,8.47-.3.28-.54.63-.7,1.01s-.25.79-.25,1.2.08.82.25,1.2c.16.38.4.72.7,1.01l3.82,3.88c.52.51,1.2.82,1.93.87.73.05,1.45-.17,2.03-.6,3.67-2.91,8.32-4.3,13-3.87,4.67.42,9,2.62,12.08,6.14,3.08,3.52,4.67,8.08,4.43,12.73-.23,4.65-2.27,9.04-5.68,12.23-25.19,24.98-58.8-45.06-135.09-8.96-1.29.61-2.43,1.49-3.36,2.56-.93,1.08-1.63,2.33-2.05,3.69-.42,1.36-.55,2.78-.38,4.19.17,1.41.62,2.77,1.35,3.99l13.09,22.44c1.36,2.34,3.59,4.06,6.21,4.77s5.42.37,7.79-.95l.31-.18-.24.18,5.74-3.18c6.47-3.99,12.58-8.51,18.27-13.53.56-.51,1.29-.8,2.05-.83.76-.02,1.51.22,2.1.7.32.27.58.6.77.98.18.38.28.78.3,1.2.01.42-.06.83-.22,1.22-.16.39-.4.73-.71,1.02-5.99,5.36-12.45,10.18-19.3,14.41h-.2l-5.8,3.22c-2.45,1.37-5.21,2.08-8.03,2.07-2.91.01-5.77-.74-8.3-2.18-2.52-1.44-4.62-3.51-6.09-6.01l-12.38-21.21c-23.67,16.73-38.21,48.86-30.34,89.55.13.69.5,1.31,1.03,1.75.54.45,1.22.69,1.92.7h13.96c.77.02,1.52-.25,2.09-.76.57-.51.93-1.22,1-1.98.66-4.93,3.09-9.45,6.86-12.73,3.77-3.28,8.6-5.08,13.61-5.08s9.85,1.81,13.61,5.08c3.77,3.28,6.2,7.8,6.86,12.73.09.72.44,1.39.99,1.87.55.48,1.26.75,1.99.75h13.65c.73,0,1.44-.27,1.99-.76.55-.48.9-1.15.99-1.87.66-4.93,3.09-9.45,6.86-12.73,3.77-3.28,8.6-5.08,13.61-5.08s9.85,1.81,13.61,5.08c3.77,3.28,6.2,7.8,6.86,12.73.09.72.44,1.39.99,1.87.55.48,1.25.75,1.99.76h13.56c.79,0,1.56-.31,2.12-.86.57-.55.89-1.31.9-2.09.31-18.98,5.47-40.78,20.16-51.71,50.91-37.8,37.52-70.2,25.74-81.89ZM165.22,121.37l-9.71-4.83c0-1.03.26-2.05.77-2.95.51-.9,1.24-1.66,2.12-2.2s1.9-.85,2.93-.89c1.04-.04,2.07.18,3,.64.93.46,1.72,1.16,2.31,2.01.58.86.94,1.84,1.02,2.87.09,1.03-.09,2.06-.52,3s-1.09,1.76-1.93,2.37v-.02Z"/>
</svg>