<?xml version="1.0" encoding="UTF-8"?>
<svg id="a" data-name="icon" xmlns="http://www.w3.org/2000/svg" xmlns:xlink="http://www.w3.org/1999/xlink" viewBox="0 0 256 256">
  <defs>
    <style>
      .e {
        fill: url(#c);
      }

      .e, .f, .g, .h, .i, .j, .k {
        stroke-width: 0px;
      }

      .g {
        fill: url(#b);
      }

      .h {
        fill: #fff;
      }

      .i {
        fill: url(#d);
      }

      .j {
        fill: #6b57ff;
      }

      .k {
        fill: #087cfa;
      }
    </style>
    <linearGradient id="b" data-name="Unbenannter Verlauf 4" x1="42.77" y1="116.03" x2="142.31" y2="121.09" gradientTransform="translate(0 258) scale(1 -1)" gradientUnits="userSpaceOnUse">
      <stop offset=".09" stop-color="#fc801d"/>
      <stop offset=".23" stop-color="#b07f61"/>
      <stop offset=".41" stop-color="#577db3"/>
      <stop offset=".53" stop-color="#1e7ce6"/>
      <stop offset=".59" stop-color="#087cfa"/>
    </linearGradient>
    <linearGradient id="c" data-name="Unbenannter Verlauf 2" x1="205.04" y1="126.62" x2="171.85" y2="225.79" gradientTransform="translate(0 258) scale(1 -1)" gradientUnits="userSpaceOnUse">
      <stop offset="0" stop-color="#fe2857"/>
      <stop offset=".08" stop-color="#cb3979"/>
      <stop offset=".16" stop-color="#9e4997"/>
      <stop offset=".25" stop-color="#7557b2"/>
      <stop offset=".34" stop-color="#5362c8"/>
      <stop offset=".44" stop-color="#386cda"/>
      <stop offset=".54" stop-color="#2373e8"/>
      <stop offset=".66" stop-color="#1478f2"/>
      <stop offset=".79" stop-color="#0b7bf8"/>
      <stop offset="1" stop-color="#087cfa"/>
    </linearGradient>
    <linearGradient id="d" data-name="Unbenannter Verlauf 3" x1="58.53" y1="183.94" x2="183.69" y2="-23.1" gradientTransform="translate(0 258) scale(1 -1)" gradientUnits="userSpaceOnUse">
      <stop offset="0" stop-color="#fe2857"/>
      <stop offset=".08" stop-color="#fe295f"/>
      <stop offset=".21" stop-color="#ff2d76"/>
      <stop offset=".3" stop-color="#ff318c"/>
      <stop offset=".38" stop-color="#ea3896"/>
      <stop offset=".55" stop-color="#b248ae"/>
      <stop offset=".79" stop-color="#5a63d6"/>
      <stop offset="1" stop-color="#087cfa"/>
    </linearGradient>
  </defs>
  <rect class="j" width="256" height="256" rx="60" ry="60"/>
  <path class="g" d="M59.67,169.06l-29.42-23.23,17.31-32.06,26.02,8.71-13.92,46.58Z"/>
  <path class="k" d="M228,81.31l-3.6,115.83-77.04,30.85-41.96-27.08,122.6-119.6Z"/>
  <path class="e" d="M228,81.31l-38.12,37.19-48.96-60.06,24.17-27.17,62.92,50.04Z"/>
  <path class="i" d="M105.4,200.92l-61.27,22.15,12.83-44.94,16.62-55.65-45.58-15.25L56.96,28l65.46,7.73,67.46,82.77-84.48,82.42Z"/>
  <path class="f" d="M66.4,65.5h125v125h-125v-125Z"/>
  <g>
    <path class="h" d="M81.98,166.88h46.88v7.81h-46.88v-7.81Z"/>
    <path class="h" d="M105.37,89.71v-8.54h-23.31v8.54h6.54v29.5h-6.54v8.54h23.31v-8.54h-6.52v-29.5h6.52Z"/>
    <path class="h" d="M127.73,128.42c-3.18.1-6.33-.61-9.15-2.08-2.32-1.25-4.38-2.91-6.08-4.92l6.44-7.19c1.18,1.33,2.54,2.48,4.04,3.42,1.34.83,2.9,1.27,4.48,1.25,1.71.08,3.37-.58,4.56-1.81,1.25-1.7,1.85-3.79,1.67-5.9v-30.06h10.42v30.52c.05,2.47-.34,4.93-1.15,7.27-1.39,3.94-4.52,7.01-8.48,8.33-2.22.75-4.55,1.12-6.9,1.08"/>
  </g>
</svg>