<?xml version="1.0" encoding="UTF-8"?>
<svg id="a" data-name="icon" xmlns="http://www.w3.org/2000/svg" viewBox="0 0 256 256">
  <defs>
    <style>
      .b {
        fill: #fff;
      }

      .b, .c {
        stroke-width: 0px;
      }

      .c {
        fill: #1d63ed;
      }
    </style>
  </defs>
  <rect class="c" width="256" height="256" rx="60" ry="60"/>
  <path class="b" d="M200.94,108.57c-1.05-7.61-5.24-14.21-12.8-20.18l-4.37-2.96-2.92,4.42c-3.74,5.69-5.6,13.62-5.01,21.23.27,2.64,1.14,7.47,3.83,11.62-2.69,1.5-8.02,3.51-15.12,3.37H28.78l-.27,1.59c-1.28,7.61-1.28,31.43,13.99,49.7,11.62,13.89,28.97,20.96,51.66,20.96,49.2,0,85.56-22.91,102.64-64.64,6.7.14,21.14.05,28.56-14.3.18-.32.64-1.18,1.91-3.92l.73-1.5-4.15-2.82c-4.56-2.96-14.9-4.1-22.91-2.55h0ZM137.34,57.68h-20.64v19h20.64v-19ZM137.34,80.51h-20.64v19h20.64v-19ZM112.92,80.51h-20.64v19h20.64v-19ZM88.55,80.51h-20.64v19h20.64v-19ZM64.13,103.33h-20.64v19h20.64v-19ZM88.55,103.33h-20.64v19h20.64v-19ZM112.92,103.33h-20.64v19h20.64v-19ZM137.34,103.33h-20.64v19h20.64v-19ZM161.76,103.33h-20.64v19h20.64v-19Z"/>
</svg>