<?xml version="1.0" encoding="UTF-8"?>
<svg id="a" data-name="icon" xmlns="http://www.w3.org/2000/svg" viewBox="0 0 256 256">
  <defs>
    <style>
      .b {
        fill: #fff;
        fill-rule: evenodd;
      }

      .b, .c {
        stroke-width: 0px;
      }

      .c {
        fill: #24292f;
      }
    </style>
  </defs>
  <rect class="c" width="256" height="256" rx="60" ry="60"/>
  <path class="b" d="M128.08,29.67c-55.34,0-100.08,45.07-100.08,100.83,0,44.57,28.67,82.3,68.43,95.65,4.97,1,6.79-2.17,6.79-4.84,0-2.34-.16-10.35-.16-18.7-27.84,6.01-33.64-12.02-33.64-12.02-4.47-11.69-11.1-14.69-11.1-14.69-9.11-6.18.66-6.18.66-6.18,10.11.67,15.41,10.35,15.41,10.35,8.95,15.36,23.36,11.02,29.16,8.35.83-6.51,3.48-11.02,6.3-13.52-22.2-2.34-45.57-11.02-45.57-49.75,0-11.02,3.97-20.03,10.27-27.04-.99-2.5-4.47-12.86,1-26.71,0,0,8.45-2.67,27.5,10.35,8.16-2.21,16.57-3.33,25.02-3.34,8.45,0,17.06,1.17,25.02,3.34,19.06-13.02,27.51-10.35,27.51-10.35,5.47,13.85,1.99,24.21.99,26.71,6.46,7.01,10.27,16.02,10.27,27.04,0,38.73-23.36,47.24-45.73,49.75,3.65,3.17,6.79,9.18,6.79,18.7,0,13.52-.16,24.37-.16,27.71,0,2.67,1.82,5.84,6.79,4.84,39.77-13.36,68.43-51.08,68.43-95.65.16-55.76-44.74-100.83-99.92-100.83Z"/>
</svg>